<svg id="Layer_1" data-name="Layer 1" xmlns="http://www.w3.org/2000/svg" viewBox="0 0 109.975 109.972"><defs><style>.cls-2{fill:#fdfefe}</style></defs><circle id="circle" cx="54.987" cy="54.986" r="54.987" fill="#fcdcdc"/><path class="cls-2" d="M55.001 22.952A27.672 27.672 0 0 0 27.33 50.624C27.329 71.64 55 89.931 55 89.931S82.673 71.64 82.673 50.624a27.672 27.672 0 0 0-27.672-27.672zm0 49.18A21.508 21.508 0 1 1 76.51 50.624a21.506 21.506 0 0 1-21.509 21.508z" transform="translate(-.013 -.014)"/><path id="Platter-Base" class="cls-2" d="M44.631 57.869h20.54l2.568-2.569H42.064l2.567 2.569z"/><g id="Platter-Head"><path class="cls-2" d="M54.914 43.76a10.27 10.27 0 0 0-10.27 10.27h20.54a10.27 10.27 0 0 0-10.27-10.27z" transform="translate(-.013 -.014)"/><path class="cls-2" d="M56.197 42.477a1.283 1.283 0 1 0-1.283 1.284 1.283 1.283 0 0 0 1.283-1.284z" transform="translate(-.013 -.014)"/></g></svg>