<svg id="Layer_1" data-name="Layer 1" xmlns="http://www.w3.org/2000/svg" viewBox="0 0 110 110"><defs><style>.cls-2{fill:#fff}.cls-6{fill:#b6bcbd}</style></defs><g id="Multicolor"><path d="M104.923 65.251a26.218 26.218 0 0 0 2.394-11.015c0-10.115-5.58-18.726-13.416-22.12l.001-.033C93.902 14.364 81.29 0 65.732 0 52.607 0 41.61 10.238 38.482 24.073a17.88 17.88 0 0 0-6.287-1.156c-10.318 0-18.811 8.85-19.974 20.246C5.24 44.845 0 51.897 0 60.347c0 9.703 6.907 17.57 15.427 17.57.237 0 .472-.018.705-.033-.005.267-.034.528-.034.797 0 17.297 12.312 31.319 27.5 31.319 8.635 0 16.332-4.54 21.374-11.633a15.148 15.148 0 0 0 11.491 5.522c6.238 0 11.636-4.049 14.308-9.958a13.074 13.074 0 0 0 4.473.791c8.15 0 14.756-7.524 14.756-16.805a17.81 17.81 0 0 0-5.077-12.666z" fill="#c7ede6"/><path class="cls-2" d="M73 81a6 6 0 0 1-6 6H43a6 6 0 0 1-6-6V29a6 6 0 0 1 6-6h24a6 6 0 0 1 6 6z"/><path fill="#4ac3af" d="M39 35v30.872L55.171 35H39z"/><path fill="#21b2d1" d="M39 74.491V75h29.24L47.208 58.822 39 74.491z"/><path fill="#fbe158" d="M59.686 35L48.621 56.124 71 73.338V35H59.686z"/><circle class="cls-6" cx="48" cy="30" r="1"/><path class="cls-6" d="M63 30a1 1 0 0 1-1 1H52a1 1 0 0 1 0-2h10a1 1 0 0 1 1 1z"/><circle cx="55" cy="81" r="4" fill="#cfd3d4"/><path class="cls-2" d="M53 79h4v4h-4z"/><path fill="#f0f1f1" d="M48.621 56.124L59.686 35h-4.515L39 65.872v8.619l8.208-15.669L68.24 75H71v-1.662L48.621 56.124z"/><path d="M68 46.5c0 3.59-6.5 15.6-6.5 15.6S55 50.09 55 46.5a6.5 6.5 0 0 1 13 0z" fill="#df2c2c"/><circle class="cls-2" cx="61.5" cy="46.5" r="2.9"/></g><circle cx="59.256" cy="47.797" r="18.207" opacity=".37" fill="#fff"/><path stroke-linecap="round" fill="none" stroke="#4c4c4c" stroke-miterlimit="10" stroke-width="5" d="M71.019 62.82l16.735 15.931"/><circle cx="59.256" cy="47.797" r="18.207" fill="none" stroke="#4c4c4c" stroke-miterlimit="10" stroke-width="5"/></svg>