<svg id="Layer_1" data-name="Layer 1" xmlns="http://www.w3.org/2000/svg" viewBox="0 0 110 109.9657"><defs><style>.cls-1{fill:#c7ede6;}.cls-10,.cls-2{fill:#fff;}.cls-3{fill:#4ac3af;}.cls-4{fill:#21b2d1;}.cls-5{fill:#fbe158;}.cls-6{fill:#b6bcbd;}.cls-7{fill:#cfd3d4;}.cls-8{fill:#f0f1f1;}.cls-9{fill:#df2c2c;}.cls-10{opacity:0.37;}.cls-11,.cls-12{fill:none;stroke:#4c4c4c;stroke-miterlimit:10;stroke-width:5px;}.cls-11{stroke-linecap:round;}</style></defs><title>autocomplete-icon-rotated</title><ellipse class="cls-1" cx="55" cy="54.9829" rx="55" ry="54.9829"/><g id="Foreground"><g id="IPhone"><path class="cls-2" d="M77.5244,74.6507a6.017,6.017,0,0,1-4.1431,7.3439L50.7791,88.1808a5.8344,5.8344,0,0,1-7.158-4.2507L30.5568,33.6872A6.0169,6.0169,0,0,1,34.7,26.3434l22.6022-6.1862a5.8344,5.8344,0,0,1,7.158,4.2507Z"/><polygon class="cls-3" points="33.948 38.969 41.704 68.798 49.177 34.801 33.948 38.969"/><polygon class="cls-4" points="43.869 77.126 43.997 77.617 71.534 70.08 47.663 59.87 43.869 77.126"/><polygon class="cls-5" points="53.429 33.637 48.316 56.899 73.716 67.763 64.084 30.721 53.429 33.637"/><ellipse class="cls-6" cx="41.1673" cy="31.8181" rx="0.9747" ry="1"/><path class="cls-6" d="M55.2937,27.9517a1.0033,1.0033,0,0,1-.6905,1.224l-9.4176,2.5776a.9729.9729,0,0,1-1.193-.7085,1.0033,1.0033,0,0,1,.6905-1.224l9.4176-2.5776A.9728.9728,0,0,1,55.2937,27.9517Z"/><ellipse class="cls-7" cx="60.5728" cy="79.2904" rx="3.8988" ry="4"/><polygon class="cls-2" points="58.187 77.874 61.954 76.842 62.959 80.707 59.192 81.738 58.187 77.874"/><polygon class="cls-8" points="48.316 56.899 53.429 33.637 49.177 34.801 41.704 68.798 43.869 77.126 47.663 59.87 71.534 70.08 74.133 69.369 73.716 67.763 48.316 56.899"/><path class="cls-9" d="M64.1479,42.6053c.902,3.4687-2.2021,16.7483-2.2021,16.7483S52.807,49.4249,51.9051,45.9562A6.5186,6.5186,0,0,1,56.3935,38,6.3207,6.3207,0,0,1,64.1479,42.6053Z"/><ellipse class="cls-2" cx="58.0265" cy="44.2808" rx="2.8266" ry="2.9"/></g><g id="Search"><circle class="cls-10" cx="70.8363" cy="45.9575" r="18.2075"/><line class="cls-11" x1="66.3257" y1="64.4353" x2="59.3484" y2="86.4621"/><circle class="cls-12" cx="70.8363" cy="45.9575" r="18.2075"/></g></g></svg>