<svg id="Layer_1" data-name="Layer 1" xmlns="http://www.w3.org/2000/svg" viewBox="0 0 108.09 110"><defs><style>.cls-2{fill:#fff}.cls-6{fill:#b6bcbd}</style></defs><g id="Multicolor"><path d="M103.082 65.334a26.576 26.576 0 0 0 2.334-11.016c-.016-10.118-5.51-18.74-13.215-22.147l.001-.033C92.174 14.413 79.76.025 64.476 0c-12.893-.02-23.68 10.203-26.73 24.038a17.315 17.315 0 0 0-6.178-1.167c-10.137-.016-18.466 8.824-19.59 20.221C5.122 44.764-.014 51.81 0 60.263c.016 9.706 6.814 17.586 15.183 17.6.234 0 .464-.018.694-.033-.005.267-.034.529-.034.798C15.872 95.93 27.99 109.976 42.91 110c8.483.013 16.037-4.516 20.98-11.603a14.833 14.833 0 0 0 11.297 5.541c6.128.01 11.425-4.031 14.04-9.938a12.66 12.66 0 0 0 4.395.799c8.006.012 14.484-7.504 14.47-16.788a18.043 18.043 0 0 0-5.01-12.677z" fill="#c7ede6"/><path class="cls-2" d="M79.876 74.65a6.017 6.017 0 0 1-4.143 7.345L53.13 88.18a5.834 5.834 0 0 1-7.158-4.25L32.908 33.686a6.017 6.017 0 0 1 4.143-7.344l22.602-6.186a5.834 5.834 0 0 1 7.158 4.25z"/><path fill="#4ac3af" d="M36.299 38.969l7.756 29.829 7.473-33.997-15.229 4.168z"/><path fill="#21b2d1" d="M46.221 77.126l.127.491 27.537-7.537-23.871-10.21-3.793 17.256z"/><path fill="#fbe158" d="M55.78 33.637l-5.113 23.262 25.4 10.864-9.632-37.042-10.655 2.916z"/><ellipse class="cls-6" cx="43.519" cy="31.818" rx=".975" ry="1"/><path class="cls-6" d="M57.645 27.952a1.003 1.003 0 0 1-.69 1.224l-9.418 2.577a.973.973 0 0 1-1.193-.708 1.003 1.003 0 0 1 .69-1.224l9.418-2.578a.973.973 0 0 1 1.193.709z"/><ellipse cx="62.924" cy="79.29" rx="3.899" ry="4" fill="#cfd3d4"/><path class="cls-2" d="M60.538 77.874l3.767-1.032 1.005 3.865-3.767 1.031-1.005-3.864z"/><path fill="#f0f1f1" d="M50.667 56.899l5.113-23.262-4.252 1.164-7.473 33.997 2.166 8.328 3.793-17.256 23.871 10.21 2.6-.711-.418-1.606-25.4-10.864z"/><path d="M66.5 42.605c.901 3.469-2.203 16.749-2.203 16.749s-9.139-9.93-10.04-13.398A6.519 6.519 0 0 1 58.744 38a6.32 6.32 0 0 1 7.754 4.605z" fill="#df2c2c"/><ellipse class="cls-2" cx="60.378" cy="44.281" rx="2.827" ry="2.9"/></g><circle cx="70.836" cy="46.754" r="18.207" opacity=".37" fill="#fff"/><path stroke-linecap="round" fill="none" stroke="#4c4c4c" stroke-miterlimit="10" stroke-width="5" d="M66.326 65.232l-6.978 22.027"/><circle cx="70.836" cy="46.754" r="18.207" fill="none" stroke="#4c4c4c" stroke-miterlimit="10" stroke-width="5"/></svg>