<svg id="Layer_1" data-name="Layer 1" xmlns="http://www.w3.org/2000/svg" viewBox="0 0 109.9745 109.9717"><defs><style>.cls-1{fill:#fcdcdc;}.cls-2{fill:#a9b1bd;}.cls-3{fill:#768190;}.cls-4{fill:#c1c7d0;}.cls-5{fill:#fff;}</style></defs><title>city-icon</title><circle id="circle" class="cls-1" cx="54.9873" cy="54.9858" r="54.9866"/><g id="building"><path class="cls-2" d="M48.9256,39.8141H61.0744V69.1735H48.9256Z" transform="translate(-0.0127 -0.0142)"/><path class="cls-2" d="M53.9876,24.6282h2.0248v8.0992H53.9876Z" transform="translate(-0.0127 -0.0142)"/><path class="cls-3" d="M52.9752,39.8141V33.74a2.0248,2.0248,0,0,1,4.05,0v6.0743" transform="translate(-0.0127 -0.0142)"/><path class="cls-4" d="M59.05,77.2726H75.2478v8.0992H59.05Z" transform="translate(-0.0127 -0.0142)"/><path class="cls-3" d="M50.95,77.2726H59.05v8.0992H50.95Z" transform="translate(-0.0127 -0.0142)"/><path class="cls-4" d="M34.7522,77.2726H50.95v8.0992H34.7522Z" transform="translate(-0.0127 -0.0142)"/><path class="cls-2" d="M38.8017,69.1735H71.1983v8.0991H38.8017Z" transform="translate(-0.0127 -0.0142)"/><path class="cls-4" d="M44.8761,51.9628H50.95V69.1735H44.8761Z" transform="translate(-0.0127 -0.0142)"/><path class="cls-4" d="M59.05,51.9628h6.0743V69.1735H59.05Z" transform="translate(-0.0127 -0.0142)"/><path class="cls-3" d="M42.8513,63.0991h4.05V77.2726h-4.05Z" transform="translate(-0.0127 -0.0142)"/><path class="cls-3" d="M63.0991,63.0991h4.05V77.2726h-4.05Z" transform="translate(-0.0127 -0.0142)"/><path class="cls-3" d="M46.9009,43.8637h4.05v8.0991h-4.05Z" transform="translate(-0.0127 -0.0142)"/><path class="cls-3" d="M59.05,43.8637h4.05v8.0991H59.05Z" transform="translate(-0.0127 -0.0142)"/><path class="cls-5" d="M37.7893,28.6778c-.0344,0-.0668.0091-.1012.01a5.0607,5.0607,0,0,0-9.9214,0c-.0345-.001-.0669-.01-.1013-.01a3.0372,3.0372,0,1,0,2.17,5.1582,5.0237,5.0237,0,0,0,5.7848,0,3.0359,3.0359,0,1,0,2.1695-5.1582Z" transform="translate(-0.0127 -0.0142)"/><path class="cls-5" d="M82.3346,28.6778c-.0344,0-.0668.0091-.1013.01a5.0607,5.0607,0,0,0-9.9214,0c-.0344-.001-.0668-.01-.1012-.01A3.0372,3.0372,0,1,0,74.38,33.836a5.0237,5.0237,0,0,0,5.7848,0,3.0359,3.0359,0,1,0,2.17-5.1582Z" transform="translate(-0.0127 -0.0142)"/><path class="cls-2" d="M24.6282,83.347H85.3718v2.0248H24.6282Z" transform="translate(-0.0127 -0.0142)"/><path class="cls-5" d="M53.9876,42.8513h2.0248v2.0248H53.9876Z" transform="translate(-0.0127 -0.0142)"/><path class="cls-5" d="M53.9876,46.9009h2.0248v2.0247H53.9876Z" transform="translate(-0.0127 -0.0142)"/><path class="cls-5" d="M53.9876,50.95h2.0248v2.0248H53.9876Z" transform="translate(-0.0127 -0.0142)"/><path class="cls-5" d="M53.9876,55h2.0248v2.0248H53.9876Z" transform="translate(-0.0127 -0.0142)"/><path class="cls-5" d="M53.9876,59.05h2.0248v2.0248H53.9876Z" transform="translate(-0.0127 -0.0142)"/><path class="cls-5" d="M53.9876,63.0991h2.0248v2.0248H53.9876Z" transform="translate(-0.0127 -0.0142)"/></g></svg>