<svg id="Layer_1" data-name="Layer 1" xmlns="http://www.w3.org/2000/svg" viewBox="0 0 109.9745 109.9717"><defs><style>.cls-1{fill:#fcdcdc;}.cls-2{fill:#a9b1bd;}.cls-3{fill:#768190;}.cls-4{fill:#c1c7d0;}.cls-5{fill:#fff;}.cls-6{fill:#a6caeb;}</style></defs><title>city-icon</title><circle id="circle" class="cls-1" cx="54.9873" cy="54.9858" r="54.9866"/><g id="building"><path class="cls-2" d="M48.9256,47.9133H61.0744V77.2726H48.9256Z" transform="translate(-0.0127 -0.0142)"/><path class="cls-2" d="M53.9876,32.7274h2.0248v8.0991H53.9876Z" transform="translate(-0.0127 -0.0142)"/><path class="cls-3" d="M52.9752,47.9133V41.8389a2.0248,2.0248,0,1,1,4.05,0v6.0744" transform="translate(-0.0127 -0.0142)"/><path class="cls-4" d="M59.05,85.3718H75.2478v8.0991H59.05Z" transform="translate(-0.0127 -0.0142)"/><path class="cls-3" d="M50.95,85.3718H59.05v8.0991H50.95Z" transform="translate(-0.0127 -0.0142)"/><path class="cls-4" d="M34.7522,85.3718H50.95v8.0991H34.7522Z" transform="translate(-0.0127 -0.0142)"/><path class="cls-2" d="M38.8017,77.2726H71.1983v8.0992H38.8017Z" transform="translate(-0.0127 -0.0142)"/><path class="cls-4" d="M44.8761,60.062H50.95V77.2726H44.8761Z" transform="translate(-0.0127 -0.0142)"/><path class="cls-4" d="M59.05,60.062h6.0743V77.2726H59.05Z" transform="translate(-0.0127 -0.0142)"/><path class="cls-3" d="M42.8513,71.1983h4.05V85.3718h-4.05Z" transform="translate(-0.0127 -0.0142)"/><path class="cls-3" d="M63.0991,71.1983h4.05V85.3718h-4.05Z" transform="translate(-0.0127 -0.0142)"/><path class="cls-3" d="M46.9009,51.9628h4.05V60.062h-4.05Z" transform="translate(-0.0127 -0.0142)"/><path class="cls-3" d="M59.05,51.9628h4.05V60.062H59.05Z" transform="translate(-0.0127 -0.0142)"/><g id="clouds"><path class="cls-5" d="M37.7893,36.7769c-.0344,0-.0668.0092-.1012.01a5.0607,5.0607,0,0,0-9.9214,0c-.0345-.001-.0669-.01-.1013-.01a3.0372,3.0372,0,1,0,2.17,5.1582,5.0237,5.0237,0,0,0,5.7848,0,3.0359,3.0359,0,1,0,2.1695-5.1582Z" transform="translate(-0.0127 -0.0142)"/><path class="cls-5" d="M82.3346,36.7769c-.0344,0-.0668.0092-.1013.01a5.0607,5.0607,0,0,0-9.9214,0c-.0344-.001-.0668-.01-.1012-.01A3.0372,3.0372,0,1,0,74.38,41.9351a5.0237,5.0237,0,0,0,5.7848,0,3.0359,3.0359,0,1,0,2.17-5.1582Z" transform="translate(-0.0127 -0.0142)"/></g><path class="cls-2" d="M24.6282,91.4461H85.3718v2.0248H24.6282Z" transform="translate(-0.0127 -0.0142)"/><path class="cls-5" d="M53.9876,50.95h2.0248v2.0248H53.9876Z" transform="translate(-0.0127 -0.0142)"/><path class="cls-5" d="M53.9876,55h2.0248v2.0248H53.9876Z" transform="translate(-0.0127 -0.0142)"/><path class="cls-5" d="M53.9876,59.05h2.0248v2.0248H53.9876Z" transform="translate(-0.0127 -0.0142)"/><path class="cls-5" d="M53.9876,63.0991h2.0248v2.0248H53.9876Z" transform="translate(-0.0127 -0.0142)"/><path class="cls-5" d="M53.9876,67.1487h2.0248v2.0248H53.9876Z" transform="translate(-0.0127 -0.0142)"/><path class="cls-5" d="M53.9876,71.1983h2.0248v2.0248H53.9876Z" transform="translate(-0.0127 -0.0142)"/></g><g id="restaurant"><path class="cls-6" d="M60.2508,20.7826l1.5122-.0959.0081,0a3.5609,3.5609,0,0,0,2.6541-1.5494l1.1955-1.754A7.0771,7.0771,0,0,0,66.7555,12.19a1.597,1.597,0,0,0-1.4983-1.3283,7.0763,7.0763,0,0,0-5.0194,1.7493L58.64,14.008a3.5613,3.5613,0,0,0-1.22,2.8209l0,.008.0863,1.5127a2.13,2.13,0,0,1-.5921,1.5953L44.43,32.7705a1.8139,1.8139,0,0,0-.4859,1.3465,2.0857,2.0857,0,0,0,2.1136,2.0273c.0553,0,.1107-.0021.1659-.0067a1.8144,1.8144,0,0,0,1.28-.6458L58.7372,21.5626A2.1293,2.1293,0,0,1,60.2508,20.7826Zm-2.1133.2945L46.9048,35.0052a1.05,1.05,0,0,1-.7431.3635,1.3177,1.3177,0,0,1-1.4468-1.2829,1.0482,1.0482,0,0,1,.27-.7792L57.4683,20.4819a2.9036,2.9036,0,0,0,.8086-2.1761l-.0862-1.5087a2.7929,2.7929,0,0,1,.9569-2.2082l1.5981-1.3972a6.3122,6.3122,0,0,1,4.4748-1.56.826.826,0,0,1,.7743.6865,6.31,6.31,0,0,1-1.0117,4.6294l-1.1955,1.7541A2.7932,2.7932,0,0,1,61.71,19.917l-1.5081.0954A2.905,2.905,0,0,0,58.1375,21.0771Z" transform="translate(-0.0127 -0.0142)"/><path class="cls-6" d="M66.144,32.6731l-8.371-7.6244a.3858.3858,0,1,0-.52.57l8.3689,7.6227a1.05,1.05,0,0,1,.3181.7635,1.3181,1.3181,0,0,1-1.3673,1.3673,1.0489,1.0489,0,0,1-.7615-.316l-7.4593-8.1893a.3858.3858,0,1,0-.5705.52l7.4611,8.1913a1.8142,1.8142,0,0,0,1.3151.5659l.04,0A2.0885,2.0885,0,0,0,66.7117,33.99,1.8159,1.8159,0,0,0,66.144,32.6731Z" transform="translate(-0.0127 -0.0142)"/><path class="cls-6" d="M45.7739,20.71a3.5735,3.5735,0,0,0,2.3362.9446l.0081,0,1.5151.0047a2.1277,2.1277,0,0,1,1.5568.6867l.6675.7326a.3858.3858,0,1,0,.5705-.52l-.6685-.7336a2.9035,2.9035,0,0,0-2.1237-.9379l-1.5111-.0047a2.8032,2.8032,0,0,1-1.8107-.7244l-4.391-5.22a.1333.1333,0,0,1,.1962-.18l3.9969,3.9971a1.0143,1.0143,0,0,0,1.4331,0l.47-.4695v0l.834-.834,0,0,0,0,.4695-.4695a1.0145,1.0145,0,0,0,0-1.4331L45.326,11.5515a.1333.1333,0,0,1,.18-.1962l5.22,4.3912a2.8019,2.8019,0,0,1,.7246,1.81l.0046,1.5113a2.9055,2.9055,0,0,0,.9388,2.1247l.7152.6513a.3858.3858,0,1,0,.52-.57l-.714-.65a2.1292,2.1292,0,0,1-.6879-1.5578l-.0047-1.5152,0-.0082a3.5723,3.5723,0,0,0-.9446-2.3362.3784.3784,0,0,0-.0353-.034l-5.2393-4.4073a.9048.9048,0,0,0-1.2222,1.3322l3.9969,3.9971a.2421.2421,0,0,1,0,.3419l-.197.1967-4.4546-4.4544a.3857.3857,0,1,0-.5455.5455l4.4546,4.4546-.2887.2885-4.4546-4.4544a.3857.3857,0,0,0-.5455.5455l4.4544,4.4546-.1967.197a.2421.2421,0,0,1-.3419,0l-3.9971-3.9969a.9049.9049,0,0,0-1.3322,1.2224L45.74,20.6742A.3635.3635,0,0,0,45.7739,20.71Z" transform="translate(-0.0127 -0.0142)"/></g></svg>