<svg id="Layer_1" data-name="Layer 1" xmlns="http://www.w3.org/2000/svg" viewBox="0 0 109.9745 109.9717"><defs><style>.cls-1{fill:#e4dce9;}.cls-2{fill:#754d9f;}</style></defs><title>gatsby-icon</title><circle class="cls-1" cx="54.9873" cy="54.9858" r="54.9866"/><path class="cls-2" d="M55,25.2273A29.4674,29.4674,0,1,0,84.4674,54.6947,29.4673,29.4673,0,0,0,55,25.2273ZM31.8644,55.0019,54.6928,77.83A23.1371,23.1371,0,0,1,31.8644,55.0019Zm28.3146,22.25L32.4428,49.5157a23.143,23.143,0,0,1,41.265-8.439L70.504,43.9036a18.8936,18.8936,0,0,0-33.2694,4.3593L61.4319,72.46a18.9286,18.9286,0,0,0,11.9092-13.232h-10.03V54.6947H78.14A23.1479,23.1479,0,0,1,60.179,77.2518Z" transform="translate(-0.0127 0.2912)"/></svg>