<svg id="Layer_1" data-name="Layer 1" xmlns="http://www.w3.org/2000/svg" viewBox="0 0 109.9745 109.9717"><defs><style>.cls-1{fill:#c2e7f2;}.cls-2{fill:#fff;}.cls-3{fill:#b7bcbd;}.cls-4{fill:#d0d3d4;}.cls-5{fill:#f1f1f1;}.cls-6{fill:#ef3b43;}.cls-7{fill:#42beee;}.cls-8{fill:#ffc907;}.cls-9{fill:#ef3c4a;}.cls-10{fill:#43c7f1;}.cls-11{fill:#65be6b;}</style></defs><title>get-the-app-icon</title><circle class="cls-1" cx="54.9873" cy="54.9858" r="54.9866"/><g id="Foreground"><g id="IPhone"><path class="cls-2" d="M72.4236,80.8429a6.0169,6.0169,0,0,1-5.896,6.0277l-23.4331.1512a5.8342,5.8342,0,0,1-5.82-5.9521l.3277-51.9126a6.017,6.017,0,0,1,5.8961-6.0277l23.433-.1512A5.8344,5.8344,0,0,1,72.7514,28.93Z" transform="translate(-0.0255)"/><ellipse class="cls-3" cx="48.3357" cy="30.0861" rx="1" ry="0.9747" transform="translate(6.7817 69.0335) rotate(-75.0628)"/><path class="cls-3" d="M62.9813,29.9916a1.0032,1.0032,0,0,1-.9827,1.0046l-9.7637.0631a.9729.9729,0,0,1-.97-.9921,1.0033,1.0033,0,0,1,.9827-1.0046L62.0112,29A.9727.9727,0,0,1,62.9813,29.9916Z" transform="translate(-0.0255)"/><ellipse class="cls-4" cx="54.8489" cy="80.9563" rx="4" ry="3.8988" transform="matrix(0.2578, -0.9662, 0.9662, 0.2578, -37.5352, 113.0844)"/><polygon class="cls-2" points="52.883 78.972 56.789 78.947 56.764 82.94 52.858 82.966 52.883 78.972"/><ellipse class="cls-2" cx="61.4128" cy="46.4733" rx="2.9" ry="2.8266" transform="translate(0.6546 93.8319) rotate(-75.0628)"/><rect class="cls-5" x="39.2424" y="34.9328" width="31.2513" height="39.9501"/></g><g id="grubhub"><rect class="cls-6" x="43.7786" y="43.7913" width="22.4174" height="22.4174" rx="7.4606"/><path class="cls-2" d="M52.8749,53.8236c0,.28-.12,1.3986-.9191,1.6384-.5994.16-.8791-.28-.8791-1.3187V50.387a2.5393,2.5393,0,0,1,.32-1.3186,1.4027,1.4027,0,0,1,.8391-.48c.32,0,.6394.28.6394.8792v.5594c0,.12.12.24.24.16l1.3986-.5594c.04,0,.12-.04.12-.16v-.6394a2.1544,2.1544,0,0,0-2.7972-2.0779,3.5285,3.5285,0,0,0-2.6373,3.4765v4.6354A2.3273,2.3273,0,0,0,51.3963,57.38a3.3648,3.3648,0,0,0,3.2368-3.6763V50.8266c0-.16-.12-.16-.24-.16l-2.2778.7992a.2047.2047,0,0,0-.16.24v1.3187c0,.12.12.16.24.16l.6393-.24v.8791Zm7.7123,8.7512c.12.04.24,0,.24-.16v-9.71c0-.12-.04-.16-.16-.16l-1.4785-.5595c-.12-.04-.24,0-.24.16v3.8362L57.47,55.422V51.5459c0-.12-.04-.16-.16-.16l-1.4785-.5594c-.12-.04-.24,0-.24.16v9.79c0,.12.04.16.16.16l1.4785.5594c.12.04.24,0,.24-.16V57.3l1.4785.5595v4.0359c0,.12.04.16.16.16l1.4786.5194Z" transform="translate(-0.0255)"/></g></g><g id="apple-appstore"><path class="cls-7" d="M47.237,60.336a13.5275,13.5275,0,1,1-16.12-10.3028A13.5275,13.5275,0,0,1,47.237,60.336ZM28.3021,62.6033l-3.5228.7755.6256,2.8418L27.362,65.79Zm12.9073.1381,1.2859-.2831L41.87,59.6165l-2.9945.6592,1.7813,1.8816Zm-8.8652-1.0279L31.44,64.892l5.2583-1.1576-2.1971-2.4958-2.1571.4749Zm-4.637,8.6922a1.7793,1.7793,0,0,1-.7133-.4455l.2678,1.8105,1.2841-1.304A1.6645,1.6645,0,0,1,27.7072,70.4057Zm3.85-11.8219c-.6189-.2019-.8373.02-.8778.0715l-.0037-.0013-.0037.0115-.2669.8179-.0038.0113.0038.0013c.0025.0652.0477.3735.6667.5754.6621.2161.8467-.0171.8794-.0709l.0021.0008.0038-.0114.267-.8181.0037-.0113-.0022-.0007C32.2308,59.0971,32.2193,58.8,31.5571,58.5838Zm-.6062,1.8577c-.6951-.2268-.6751-.5621-.6751-.5621l-.1265.3879-.2521.7725-.0177.0542s-.028.36.6671.587c.7436.2426.8848-.0805.8848-.0805l.0177-.0543.2521-.7724.1265-.388S31.6945,60.6841,30.9509,60.4415Zm-.401,1.6739c-.0418-.0112-.0859-.0242-.1324-.0394-.6952-.2268-.6751-.5621-.6751-.5621l-.274.84-.04.1231-.0645.1977-.9259,2.8371-.95,2.9124-.2492.7634-.0206.0632s-.028.36.6671.5871c.7436.2426.8849-.0806.8849-.0806l.02-.0631.2492-.7635,1.2486-3.8262.6277-1.9234.0645-.1976.3142-.9627S31.1773,62.2825,30.55,62.1154Zm9.3927.97-.0461-.0478-.0059-.0062-.55-.5731-1.7735-1.8464-3.6072-3.7554s-2.5379-2.6423-3.1266-2.0768,1.9492,3.2077,1.9492,3.2077l2.9161,3.0359,2.324,2.4194.1407.1465.5562.5793.0462.0478s.3045.1943.8318-.3123C40.1612,63.3624,39.9426,63.0857,39.9426,63.0857Zm1.3593,1.4184.0015-.0015-.0075-.0077-.6023-.6272-.2356-.2452s.2.2579-.3637.8c-.5273.5064-.8137.3312-.8137.3312l.2356.2452.6024.6271.0075.0077.0024-.0022c.0562.0274.35.1357.8219-.3177C41.4556,64.8282,41.3331,64.5559,41.3019,64.5041Zm.57.59a1.06,1.06,0,0,1-.412.7492,1.0422,1.0422,0,0,1-.7655.3816s1.3882,3.2017,2.8544,1.7932C45.0038,66.6206,41.8716,65.0942,41.8716,65.0942Z" transform="translate(-0.0255)"/></g><g id="google-play"><path class="cls-8" d="M90.3538,36.0061a2.1318,2.1318,0,0,1-.6092,3.1729l-2.9483.9308L83.5491,36.211l4.5494-2.18Z" transform="translate(-0.0255)"/><path class="cls-9" d="M86.82,40.1l0-.0007-.0006,0-3.2736-3.8869-.0009-.0014-.0007,0,.0009.0015-.0009-.0015-.0014-.0021-.0161.0075-16.7824,7.931-.0977.46a1.5851,1.5851,0,0,0,.3125,1.6134c.5761.4321,1.6317.0511,1.6317.0511Z" transform="translate(-0.0255)"/><polygon class="cls-10" points="83.501 36.216 66.718 44.147 71.447 21.899 83.498 36.211 83.501 36.216"/><path class="cls-11" d="M71.52,21.676l-.0473.2226L83.5237,36.211l.0025.0054.016-.0076.0014,0,.0068-.0034,4.5446-2.1577S77.12,23.8582,73.9357,20.9156a1.2067,1.2067,0,0,0-.9549-.3957A1.8093,1.8093,0,0,0,71.52,21.676Z" transform="translate(-0.0255)"/></g></svg>