<svg xmlns="http://www.w3.org/2000/svg" viewBox="0 0 350.001 350.001"><g fill="#222a30"><path d="M14.092 88.769L172.1 164.826a6.692 6.692 0 0 0 5.802 0L335.91 88.768c5.051-2.429 5.051-9.621 0-12.051L177.9.662a6.69 6.69 0 0 0-5.801 0L14.092 76.718c-5.051 2.43-5.051 9.621 0 12.051z"/><path d="M14.092 181.024L172.1 257.082a6.692 6.692 0 0 0 5.802 0l158.008-76.057c5.051-2.429 5.051-9.621 0-12.053l-33.336-16.044-105.881 50.962c-6.726 3.236-14.228 4.946-21.692 4.946s-14.964-1.71-21.702-4.951L47.43 152.924l-33.339 16.047c-5.05 2.433-5.05 9.624.001 12.053z"/><path d="M335.91 261.229l-33.336-16.047-105.881 50.965c-6.726 3.236-14.228 4.946-21.692 4.946s-14.964-1.71-21.702-4.951L47.43 245.182 14.091 261.23c-5.051 2.432-5.051 9.621 0 12.053l158.008 76.057a6.692 6.692 0 0 0 5.802 0l158.008-76.057c5.052-2.433 5.052-9.623.001-12.054z"/></g></svg>