<svg width="480" height="350" viewBox="0 0 480 350" fill="none" xmlns="http://www.w3.org/2000/svg">
<rect width="480" height="350" fill="#F9F9F9"/>
<g clip-path="url(#clip0)">
<path d="M171.093 190.46C166.766 190.46 163.194 188.994 160.336 186.063C157.478 183.131 156.049 179.426 156.049 174.948C156.049 170.469 157.478 166.764 160.336 163.833C163.194 160.901 166.766 159.436 171.093 159.436C173.395 159.436 175.499 159.884 177.444 160.82C179.389 161.716 181.016 163.019 182.366 164.729C183.676 166.398 184.589 168.352 185.105 170.591H180.262C179.548 168.596 178.397 167.009 176.809 165.909C175.181 164.769 173.316 164.199 171.133 164.199C168.195 164.199 165.774 165.217 163.869 167.253C161.964 169.289 160.971 171.854 160.971 174.989C160.971 178.124 161.924 180.689 163.869 182.724C165.814 184.76 168.195 185.737 171.133 185.737C173.355 185.737 175.3 185.126 176.928 183.905C178.555 182.684 179.706 181.014 180.341 178.897H185.224C184.47 182.399 182.802 185.208 180.262 187.325C177.682 189.401 174.626 190.46 171.093 190.46Z" fill="#6D64E7" stroke="#685BC7" stroke-miterlimit="10"/>
<path d="M208.404 187.04C206.102 189.361 203.244 190.501 199.791 190.501C196.338 190.501 193.44 189.361 191.178 187.04C188.875 184.76 187.724 181.829 187.724 178.368C187.724 176.088 188.24 174.011 189.272 172.139C190.304 170.266 191.773 168.841 193.599 167.782C195.465 166.724 197.489 166.235 199.751 166.235C202.014 166.235 204.078 166.764 205.904 167.782C207.769 168.841 209.198 170.266 210.23 172.139C211.262 174.011 211.778 176.088 211.778 178.368C211.858 181.869 210.707 184.76 208.404 187.04ZM199.791 185.981C201.22 185.981 202.49 185.656 203.602 185.004C204.713 184.353 205.586 183.457 206.221 182.317C206.856 181.177 207.174 179.834 207.174 178.409C207.174 176.21 206.499 174.378 205.11 172.953C203.721 171.528 201.974 170.795 199.831 170.795C197.687 170.795 195.941 171.528 194.552 172.953C193.162 174.378 192.488 176.21 192.488 178.409C192.488 180.607 193.162 182.439 194.552 183.864C195.861 185.249 197.648 185.981 199.791 185.981Z" fill="#6D64E7" stroke="#685BC7" stroke-miterlimit="10"/>
<path d="M227.775 166.276C230.394 166.276 232.458 167.171 234.006 168.963C235.554 170.754 236.309 173.116 236.309 176.006V189.971H231.704V176.984C231.704 174.907 231.268 173.319 230.394 172.22C229.521 171.121 228.211 170.551 226.544 170.551C224.798 170.551 223.329 171.202 222.217 172.505C221.066 173.808 220.511 175.518 220.511 177.554V189.971H215.827V166.805H219.042L219.955 170.021C220.828 168.841 221.94 167.945 223.289 167.294C224.639 166.601 226.107 166.276 227.775 166.276Z" fill="#6D64E7" stroke="#685BC7" stroke-miterlimit="10"/>
<path d="M249.368 190.501C246.629 190.501 244.406 189.768 242.739 188.343C241.072 186.918 240.199 185.004 240.159 182.602H244.724C244.763 183.783 245.24 184.679 246.113 185.33C246.986 185.981 248.137 186.307 249.566 186.307C250.4 186.307 251.154 186.185 251.789 185.981C252.424 185.737 252.98 185.411 253.337 184.964C253.734 184.516 253.932 183.946 253.932 183.335C253.932 182.887 253.853 182.521 253.655 182.195C253.456 181.869 253.218 181.584 252.94 181.421C252.662 181.218 252.265 181.055 251.749 180.851C251.233 180.689 250.757 180.566 250.36 180.485C249.963 180.404 249.407 180.281 248.733 180.2C248.018 180.078 247.462 179.996 247.066 179.915C246.629 179.834 246.113 179.711 245.478 179.508C244.843 179.304 244.327 179.141 243.93 178.897C243.533 178.694 243.096 178.409 242.62 178.042C242.144 177.716 241.786 177.309 241.509 176.902C241.231 176.495 241.032 175.966 240.834 175.355C240.635 174.744 240.556 174.052 240.556 173.319C240.556 171.243 241.35 169.533 242.977 168.271C244.565 166.968 246.708 166.357 249.328 166.357C251.948 166.357 254.052 167.009 255.639 168.352C257.227 169.696 258.021 171.487 258.061 173.767H253.655C253.615 172.668 253.218 171.854 252.424 171.243C251.63 170.673 250.559 170.347 249.209 170.347C247.939 170.347 246.907 170.591 246.153 171.121C245.398 171.65 245.041 172.301 245.041 173.116C245.041 173.441 245.081 173.767 245.2 174.011C245.319 174.256 245.518 174.5 245.756 174.704C246.034 174.907 246.272 175.07 246.51 175.192C246.748 175.314 247.105 175.436 247.582 175.559C248.058 175.681 248.455 175.762 248.733 175.803C249.05 175.844 249.487 175.925 250.082 176.006C250.836 176.169 251.392 176.251 251.789 176.332C252.146 176.414 252.702 176.536 253.416 176.699C254.131 176.902 254.647 177.065 255.044 177.269C255.441 177.472 255.877 177.757 256.393 178.124C256.909 178.49 257.306 178.897 257.545 179.304C257.822 179.752 258.021 180.281 258.219 180.974C258.418 181.625 258.497 182.358 258.497 183.131C258.497 185.371 257.664 187.203 255.996 188.546C254.369 189.849 252.146 190.501 249.368 190.501Z" fill="#6D64E7" stroke="#685BC7" stroke-miterlimit="10"/>
<path d="M273.025 185.615H275.565V189.971H272.151C270.524 189.971 269.095 189.646 267.904 188.994C266.713 188.343 265.8 187.406 265.165 186.144C264.53 184.882 264.213 183.457 264.213 181.747V170.876H260.164V169.981L268.023 161.39H268.817V166.805H275.486V170.876H268.857V181.34C268.857 182.724 269.214 183.783 269.929 184.516C270.603 185.249 271.635 185.615 273.025 185.615Z" fill="#6D64E7" stroke="#685BC7" stroke-miterlimit="10"/>
<path d="M300.095 178.409C300.095 178.856 300.056 179.386 300.016 179.996H281.718C281.995 181.869 282.75 183.335 283.98 184.394C285.211 185.493 286.759 186.022 288.584 186.022C289.458 186.022 290.331 185.9 291.085 185.615C291.879 185.33 292.554 184.964 293.149 184.475C293.745 183.986 294.261 183.376 294.618 182.643H299.5C298.627 185.086 297.198 187.04 295.253 188.424C293.308 189.809 291.085 190.501 288.584 190.501C285.25 190.501 282.511 189.361 280.289 187.04C278.066 184.719 276.954 181.829 276.954 178.368C276.954 174.907 278.066 172.016 280.289 169.696C282.511 167.375 285.25 166.235 288.584 166.235C290.847 166.235 292.832 166.805 294.618 167.904C296.364 169.004 297.714 170.469 298.666 172.301C299.619 174.174 300.095 176.21 300.095 178.409ZM288.584 170.551C286.838 170.551 285.369 171.039 284.178 172.057C282.948 173.075 282.154 174.419 281.757 176.169H295.412C295.134 174.989 294.657 173.971 294.022 173.156C293.387 172.301 292.593 171.691 291.68 171.243C290.768 170.754 289.736 170.551 288.584 170.551Z" fill="#6D64E7" stroke="#685BC7" stroke-miterlimit="10"/>
<path d="M304.065 189.971V158.499H308.709V189.971H304.065Z" fill="#6D64E7" stroke="#685BC7" stroke-miterlimit="10"/>
<path d="M314.187 189.971V158.499H318.831V189.971H314.187Z" fill="#6D64E7" stroke="#685BC7" stroke-miterlimit="10"/>
<path d="M343.48 166.805H347.092V189.971H343.321L342.845 187.121C340.662 189.361 337.963 190.501 334.708 190.501C331.334 190.501 328.516 189.361 326.293 187.04C324.03 184.719 322.919 181.829 322.919 178.368C322.919 174.907 324.03 172.016 326.293 169.696C328.516 167.416 331.334 166.235 334.708 166.235C338.042 166.235 340.781 167.375 342.924 169.655L343.48 166.805ZM329.746 183.783C331.135 185.208 332.922 185.941 335.065 185.941C337.208 185.941 338.955 185.208 340.344 183.783C341.733 182.358 342.408 180.526 342.408 178.327C342.408 176.129 341.733 174.337 340.344 172.912C338.955 171.487 337.208 170.754 335.065 170.754C333.676 170.754 332.406 171.08 331.294 171.731C330.183 172.383 329.27 173.279 328.635 174.459C328 175.599 327.682 176.902 327.682 178.327C327.642 180.566 328.317 182.358 329.746 183.783Z" fill="#6D64E7" stroke="#685BC7" stroke-miterlimit="10"/>
<path d="M362.731 185.615H365.271V189.971H361.858C360.23 189.971 358.801 189.646 357.611 188.994C356.42 188.343 355.507 187.406 354.872 186.144C354.237 184.882 353.919 183.457 353.919 181.747V170.876H349.87V169.981L357.73 161.39H358.523V166.805H365.192V170.876H358.563V181.34C358.563 182.724 358.92 183.783 359.635 184.516C360.31 185.249 361.342 185.615 362.731 185.615Z" fill="#6D64E7" stroke="#685BC7" stroke-miterlimit="10"/>
<path d="M389.801 178.409C389.801 178.856 389.762 179.386 389.722 179.996H371.424C371.701 181.869 372.456 183.335 373.686 184.394C374.917 185.493 376.465 186.022 378.29 186.022C379.164 186.022 380.037 185.9 380.791 185.615C381.585 185.33 382.26 184.964 382.855 184.475C383.451 183.986 383.967 183.376 384.324 182.643H389.206C388.333 185.086 386.904 187.04 384.959 188.424C383.014 189.809 380.791 190.501 378.29 190.501C374.956 190.501 372.217 189.361 369.995 187.04C367.772 184.719 366.66 181.829 366.66 178.368C366.66 174.907 367.772 172.016 369.995 169.696C372.217 167.375 374.956 166.235 378.29 166.235C380.553 166.235 382.538 166.805 384.324 167.904C386.07 169.004 387.42 170.469 388.373 172.301C389.325 174.174 389.801 176.21 389.801 178.409ZM378.29 170.551C376.544 170.551 375.075 171.039 373.885 172.057C372.654 173.075 371.86 174.419 371.463 176.169H385.118C384.84 174.989 384.364 173.971 383.728 173.156C383.093 172.301 382.299 171.691 381.387 171.243C380.474 170.754 379.442 170.551 378.29 170.551Z" fill="#6D64E7" stroke="#685BC7" stroke-miterlimit="10"/>
<path d="M143.07 188.831C141.363 188.628 136.957 186.999 136.957 186.999C107.028 175.64 103.773 148.565 103.773 148.565C101.789 142.743 97.7798 148.565 97.7798 148.565C89.0076 160.209 90.0793 169.411 90 172.709C89.9206 176.006 93.5723 195.061 111.395 201.127C129.217 207.194 141.204 196.811 144.141 193.961C147.118 191.152 144.776 189.035 143.07 188.831Z" fill="#6D64E7"/>
<path d="M127.709 150.275C122.549 150.275 118.341 154.55 118.341 159.843C118.341 165.136 122.549 169.411 127.709 169.411C132.869 169.411 137.036 165.136 137.036 159.843C137.036 154.55 132.829 150.275 127.709 150.275Z" fill="#6D64E7"/>
</g>
<defs>
<clipPath id="clip0">
<rect x="90" y="146" width="300" height="57" fill="white"/>
</clipPath>
</defs>
</svg>
