<svg id="Layer_1" data-name="Layer 1" xmlns="http://www.w3.org/2000/svg" xmlns:xlink="http://www.w3.org/1999/xlink" viewBox="0 0 121 121"><defs><style>.cls-1{fill:none;stroke-miterlimit:10;stroke-width:6px;stroke:url(#linear-gradient);}.cls-2{font-size:80px;font-family:Nunito-Bold, Nunito;font-weight:700;}.cls-3{fill:url(#linear-gradient-2);}</style><linearGradient id="linear-gradient" y1="60.5" x2="121" y2="60.5" gradientUnits="userSpaceOnUse"><stop offset="0" stop-color="#005bea"/><stop offset="0.1955" stop-color="#005feb"/><stop offset="0.3885" stop-color="#006bed"/><stop offset="0.5808" stop-color="#007ff0"/><stop offset="0.7724" stop-color="#009af4"/><stop offset="0.9621" stop-color="#00befa"/><stop offset="1" stop-color="#00c6fb"/></linearGradient><linearGradient id="linear-gradient-2" x1="341.9839" y1="331.3487" x2="409.9824" y2="331.3487" gradientUnits="userSpaceOnUse"><stop offset="0" stop-color="#005bea"/><stop offset="0.267" stop-color="#005eea"/><stop offset="0.4504" stop-color="#0067ec"/><stop offset="0.6087" stop-color="#0076ee"/><stop offset="0.7528" stop-color="#008cf2"/><stop offset="0.8858" stop-color="#00a8f6"/><stop offset="1" stop-color="#00c6fb"/></linearGradient></defs><title>fz-logo</title><rect class="cls-1" x="3" y="3" width="115" height="115" rx="12"/><text class="cls-2" transform="translate(26.5439 87.4136)">fz</text><path class="cls-3" d="M362.144,312.6934a8.7307,8.7307,0,0,0-1.68,5.76v1.84h6.8q4.4787,0,4.48,3.76t-4.48,3.76h-6.8v27.28a4.3824,4.3824,0,0,1-1.4,3.52,5.2787,5.2787,0,0,1-3.56,1.2,5.4347,5.4347,0,0,1-3.6-1.2,4.32,4.32,0,0,1-1.44-3.52v-27.28h-4q-4.481,0-4.48-3.76t4.48-3.76h4v-.56q0-7.5183,3.96-11.8,3.96-4.2788,11.16-4.84l2.08-.16q3.1984-.24,4.52.68a3.2238,3.2238,0,0,1,1.32,2.84q0,3.441-3.92,3.84l-2.08.16Q363.8235,310.6939,362.144,312.6934Z" transform="translate(-316 -272)"/><path class="cls-3" d="M409.9824,355.6538a3.51,3.51,0,0,1-1.12,2.76,4.9109,4.9109,0,0,1-3.36,1h-26.72a4.4386,4.4386,0,0,1-3.28-1.28,4.151,4.151,0,0,1-1.28-3.04,5.3509,5.3509,0,0,1,1.44-3.52l20.56-23.76h-17.84a5.05,5.05,0,0,1-3.36-.96,4.0609,4.0609,0,0,1,0-5.6,5.053,5.053,0,0,1,3.36-.96h25.84a4.49,4.49,0,0,1,3.32,1.24,4.1847,4.1847,0,0,1,1.24,3.08,5.3166,5.3166,0,0,1-1.36,3.52l-20.64,23.76h18.72Q409.982,351.8936,409.9824,355.6538Z" transform="translate(-316 -272)"/></svg>