<svg width="480" height="350" viewBox="0 0 480 350" fill="none" xmlns="http://www.w3.org/2000/svg">
<rect width="480" height="350" fill="#F9F9F9"/>
<path d="M375.276 189.678H368.006L358.758 176.979V189.678H352.546V156.227H358.758V175.368L367.822 164.647H375.092L365.153 176.104L375.276 189.678ZM340.445 184.939C344.954 184.939 347.991 182.5 347.991 182.5V188.16C346.104 189.172 343.574 190.184 339.755 190.184C326.917 190.184 326.273 180.153 326.273 177.117C326.273 170.307 330.552 164.049 338.19 164.049C349.233 164.049 349.187 173.85 349.187 175.782V179.003H332.531C332.945 182.086 335.429 184.939 340.445 184.939ZM343.343 173.988C343.067 171.595 341.825 169.294 338.466 169.294C334.555 169.294 332.945 171.779 332.577 173.988H343.343ZM314.724 184.939C319.233 184.939 322.27 182.5 322.27 182.5V188.16C320.383 189.172 317.853 190.184 314.034 190.184C301.196 190.184 300.552 180.153 300.552 177.117C300.552 170.307 304.831 164.049 312.469 164.049C323.512 164.049 323.466 173.85 323.466 175.782V179.003H306.81C307.27 182.086 309.709 184.939 314.724 184.939ZM317.669 173.988C317.393 171.595 316.15 169.294 312.791 169.294C308.88 169.294 307.27 171.779 306.902 173.988H317.669ZM286.932 190.184C276.718 190.184 269.954 184.018 269.954 173.252C269.954 162.025 278.144 155.675 286.84 155.675C293.374 155.675 296.503 157.745 296.503 157.745V164.095C293.926 162.531 291.626 161.242 286.978 161.242C280.491 161.242 276.442 166.764 276.442 173.206C276.442 179.279 279.985 184.525 286.748 184.525C289.325 184.525 291.028 183.926 291.028 183.926V176.748H284.31V171.181H294.202C295.859 171.181 297.239 172.561 297.239 174.218V188.021C297.239 188.16 293.972 190.184 286.932 190.184ZM264.11 184.939C266.089 184.939 268.436 183.604 268.436 183.604V188.988C268.436 188.988 266.503 190.184 262.5 190.184C253.988 190.184 254.31 183.972 254.31 180.245V158.436H260.521C260.521 160.046 260.521 162.209 260.521 164.555H267.469V169.847H260.521C260.521 175.184 260.521 181.12 260.521 181.12C260.521 183.42 261.258 184.939 264.11 184.939ZM230.705 182.684C230.705 176.242 235.997 174.494 244.601 174.816C244.601 171.871 244.417 169.341 239.678 169.341C235.997 169.341 232.224 171.779 232.224 171.779V166.12C232.224 166.12 236.457 164.049 241.196 164.049C244.371 164.049 250.767 164.463 250.767 173.39C250.767 181.58 250.767 189.264 250.767 189.264C250.767 189.264 245.797 190.184 242.07 190.184C237.239 190.184 230.705 189.126 230.705 182.684ZM244.555 179.141C242.623 179.049 236.963 178.543 236.963 182.224C236.963 186.503 244.555 185.031 244.555 185.031V179.141ZM219.939 184.939C224.448 184.939 227.485 182.5 227.485 182.5V188.16C225.598 189.172 223.067 190.184 219.248 190.184C206.411 190.184 205.767 180.153 205.767 177.117C205.767 170.307 210.046 164.049 217.684 164.049C228.727 164.049 228.681 173.85 228.681 175.782V179.003H212.024C212.439 182.086 214.923 184.939 219.939 184.939ZM222.837 173.988C222.561 171.595 221.319 169.294 217.96 169.294C214.049 169.294 212.439 171.779 212.07 173.988H222.837ZM196.058 171.043C197.715 171.733 203.374 173.988 203.374 180.337C203.374 187.791 196.932 190.23 190.537 190.23C184.141 190.23 180.046 187.515 180.046 187.515V181.12C180.046 181.12 185.245 184.617 190.537 184.617C195.828 184.617 196.886 182.73 196.886 180.844C196.886 178.957 195.92 178.083 194.356 177.255C192.791 176.426 189.893 175.322 186.672 174.172C183.451 173.021 179.632 171.043 179.632 165.337C179.632 158.436 185.613 155.675 191.687 155.675C197.715 155.675 201.488 157.745 201.488 157.745V164.095C201.488 164.095 196.702 161.242 191.411 161.242C187.684 161.242 186.258 162.761 186.12 164.693C185.936 166.764 187.408 167.5 188.742 168.19C189.617 168.742 194.724 170.445 196.058 171.043ZM161.457 184.939H155.567V174.402C155.567 172.699 156.948 171.319 158.65 171.319H166.656V176.887H161.503V184.939H161.457ZM132.929 199.064C119.54 199.064 110.751 195.337 110.751 195.337V189.034C110.751 189.034 119.356 192.991 132.929 192.991C146.457 192.991 155.061 189.034 155.061 189.034V195.337C155.061 195.337 146.319 199.064 132.929 199.064ZM116.319 182.454L110.797 152.868C110.797 152.868 119.264 147.301 132.975 147.301C146.687 147.301 155.107 152.868 155.107 152.868L149.586 182.454H116.319ZM104.356 176.887H99.2024V171.319H107.209C108.911 171.319 110.291 172.699 110.291 174.402V184.939H104.356V176.887Z" fill="#1673E6"/>
</svg>
