<svg id="Layer_1" data-name="Layer 1" xmlns="http://www.w3.org/2000/svg" xmlns:xlink="http://www.w3.org/1999/xlink" viewBox="0 0 119 119"><defs><style>.cls-1{fill:none;stroke-miterlimit:10;stroke-width:4px;stroke:url(#linear-gradient);}.cls-2{font-size:64px;font-family:Nunito-Regular, Nunito;}.cls-3{fill:url(#linear-gradient-2);}</style><linearGradient id="linear-gradient" y1="59.5" x2="119" y2="59.5" gradientUnits="userSpaceOnUse"><stop offset="0" stop-color="#89f7fe"/><stop offset="1" stop-color="#66a6ff"/></linearGradient><linearGradient id="linear-gradient-2" x1="349.48" y1="328.6075" x2="400.4873" y2="328.6075" xlink:href="#linear-gradient"/></defs><title>fz-logo</title><rect class="cls-1" x="2" y="2" width="115" height="115" rx="12"/><text class="cls-2" transform="translate(32.5439 78.0537)">fz</text><path class="cls-3" d="M362.9839,312.1738q-1.7279,1.8882-1.728,5.6641v2.0478h7.104a2.2518,2.2518,0,0,1,1.664.5762,2.0763,2.0763,0,0,1,.5762,1.5357,1.8662,1.8662,0,0,1-.5762,1.4721,2.4251,2.4251,0,0,1-1.664.5122h-7.104v24.8316a2.43,2.43,0,0,1-.7359,1.8882,2.6048,2.6048,0,0,1-1.8242.6718,2.6881,2.6881,0,0,1-1.8877-.6718,2.4254,2.4254,0,0,1-.7363-1.8882V323.9819h-4.2876a2.4513,2.4513,0,0,1-1.6963-.5444,1.8343,1.8343,0,0,1-.6079-1.44,2.0141,2.0141,0,0,1,.6079-1.5357,2.366,2.366,0,0,1,1.6963-.5762h4.2876v-1.1518q0-5.76,2.88-9.0562t8.2559-3.68l1.6641-.128a4.1974,4.1974,0,0,1,2.4.32,1.72,1.72,0,0,1,.7358,1.6q0,1.8573-2.24,2.1123l-1.6641.1279A7.3969,7.3969,0,0,0,362.9839,312.1738Z" transform="translate(-317 -273)"/><path class="cls-3" d="M399.9111,347.502a2.2507,2.2507,0,0,1,0,3.0078,2.333,2.333,0,0,1-1.664.5439h-22.4a2.4887,2.4887,0,0,1-1.792-.6719,2.17,2.17,0,0,1-.7041-1.6323,3.1471,3.1471,0,0,1,.768-1.9839l18.9439-22.7837H375.5273a2.4511,2.4511,0,0,1-1.6962-.5444,1.8344,1.8344,0,0,1-.608-1.44,2.0142,2.0142,0,0,1,.608-1.5357,2.3658,2.3658,0,0,1,1.6962-.5762h21.6958a2.5779,2.5779,0,0,1,1.856.6719,2.1735,2.1735,0,0,1,.7041,1.6323,3.1448,3.1448,0,0,1-.7681,1.9839l-19.0078,22.7837h18.24A2.335,2.335,0,0,1,399.9111,347.502Z" transform="translate(-317 -273)"/></svg>